<svg xmlns="http://www.w3.org/2000/svg" xmlns:xlink="http://www.w3.org/1999/xlink" width="50" zoomAndPan="magnify" viewBox="0 0 150 149.999998" height="40" preserveAspectRatio="xMidYMid meet" version="1.0"><defs><clipPath id="08db4804c0"><path d="M 7.773438 0.0195312 L 142.023438 0.0195312 L 142.023438 149.996094 L 7.773438 149.996094 Z M 7.773438 0.0195312 " clip-rule="nonzero"/></clipPath></defs><path fill="#ffffff" d="M 140.898438 130.421875 L 140.898438 137.085938 C 140.898438 143.472656 135.699219 148.667969 129.3125 148.667969 L 9.101562 148.667969 L 9.101562 141.855469 L 129.3125 141.855469 C 131.945312 141.855469 134.082031 139.714844 134.082031 137.085938 L 134.082031 130.421875 C 134.082031 127.792969 131.945312 125.652344 129.3125 125.652344 L 116.800781 125.652344 L 116.800781 130.664062 L 108.902344 125.632812 L 101.011719 130.664062 L 101.011719 125.652344 L 9.101562 125.652344 L 9.101562 118.839844 L 25.195312 118.839844 C 18.808594 118.839844 13.613281 113.644531 13.613281 107.257812 L 13.613281 99.566406 C 13.613281 93.179688 18.808594 87.984375 25.195312 87.984375 L 136.382812 87.984375 L 136.382812 94.796875 L 25.195312 94.796875 C 22.566406 94.796875 20.425781 96.933594 20.425781 99.566406 L 20.425781 107.257812 C 20.425781 109.886719 22.566406 112.027344 25.195312 112.027344 L 101.011719 112.027344 L 101.011719 103.410156 L 116.800781 103.410156 L 116.800781 112.027344 L 136.382812 112.027344 L 136.382812 118.839844 L 129.3125 118.839844 C 135.699219 118.839844 140.898438 124.035156 140.898438 130.421875 " fill-opacity="1" fill-rule="nonzero"/><path fill="#ffce00" d="M 134.082031 130.421875 L 134.082031 137.085938 C 134.082031 139.714844 131.945312 141.855469 129.3125 141.855469 L 13.355469 141.855469 C 17.292969 132.535156 13.355469 125.652344 13.355469 125.652344 L 101.011719 125.652344 L 101.011719 130.664062 L 108.871094 125.652344 L 108.9375 125.652344 L 116.800781 130.664062 L 116.800781 125.652344 L 129.3125 125.652344 C 131.945312 125.652344 134.082031 127.792969 134.082031 130.421875 " fill-opacity="1" fill-rule="nonzero"/><path fill="#dd0000" d="M 132.128906 112.027344 L 116.800781 112.027344 L 116.800781 103.414062 L 101.011719 103.414062 L 101.011719 112.027344 L 25.195312 112.027344 C 22.566406 112.027344 20.425781 109.886719 20.425781 107.257812 L 20.425781 99.566406 C 20.425781 96.933594 22.566406 94.796875 25.195312 94.796875 L 132.128906 94.796875 C 132.128906 94.796875 128.191406 102.707031 132.128906 112.027344 " fill-opacity="1" fill-rule="nonzero"/><g clip-path="url(#08db4804c0)"><path fill="#000000" d="M 139.570312 130.421875 C 139.570312 124.769531 134.96875 120.167969 129.3125 120.167969 L 118.128906 120.167969 L 118.128906 124.324219 L 129.3125 124.324219 C 132.675781 124.324219 135.410156 127.058594 135.410156 130.421875 L 135.410156 137.085938 C 135.410156 140.449219 132.675781 143.183594 129.3125 143.183594 L 10.429688 143.183594 L 10.429688 147.339844 L 129.3125 147.339844 C 134.96875 147.339844 139.570312 142.738281 139.570312 137.085938 Z M 15.277344 140.527344 L 129.3125 140.527344 C 131.210938 140.527344 132.753906 138.984375 132.753906 137.085938 L 132.753906 130.421875 C 132.753906 128.523438 131.210938 126.980469 129.3125 126.980469 L 118.128906 126.980469 L 118.128906 133.085938 L 108.902344 127.207031 L 99.683594 133.085938 L 99.683594 126.980469 L 15.371094 126.980469 C 16.269531 129.566406 17.289062 134.46875 15.277344 140.527344 Z M 10.429688 124.324219 L 99.683594 124.324219 L 99.683594 120.167969 L 10.429688 120.167969 Z M 25.195312 117.511719 L 99.683594 117.511719 L 99.683594 113.355469 L 25.195312 113.355469 C 21.832031 113.355469 19.097656 110.621094 19.097656 107.257812 L 19.097656 99.566406 C 19.097656 96.203125 21.832031 93.46875 25.195312 93.46875 L 135.054688 93.46875 L 135.054688 89.3125 L 25.195312 89.3125 C 19.542969 89.3125 14.941406 93.910156 14.941406 99.566406 L 14.941406 107.257812 C 14.941406 112.914062 19.542969 117.511719 25.195312 117.511719 Z M 130.1875 96.125 L 25.195312 96.125 C 23.296875 96.125 21.753906 97.667969 21.753906 99.566406 L 21.753906 107.257812 C 21.753906 109.15625 23.296875 110.699219 25.195312 110.699219 L 99.683594 110.699219 L 99.683594 104.738281 C 97.21875 104.738281 94.757812 104.738281 92.296875 104.738281 C 90.585938 104.738281 90.585938 102.082031 92.296875 102.082031 C 94.757812 102.082031 97.21875 102.082031 99.683594 102.082031 L 118.128906 102.082031 C 120.578125 102.082031 123.027344 102.082031 125.480469 102.082031 C 127.191406 102.082031 127.1875 104.738281 125.480469 104.738281 C 123.027344 104.738281 120.578125 104.738281 118.128906 104.738281 L 118.128906 110.699219 L 130.210938 110.699219 C 128.128906 104.371094 129.28125 98.894531 130.1875 96.125 Z M 102.339844 128.242188 L 108.902344 124.058594 L 115.472656 128.242188 L 115.472656 104.738281 C 111.09375 104.738281 106.714844 104.738281 102.339844 104.738281 Z M 134.128906 113.355469 L 118.128906 113.355469 L 118.128906 117.511719 L 135.054688 117.511719 L 135.054688 113.355469 Z M 43.179688 29.207031 L 43.179688 50.101562 L 52.574219 50.101562 Z M 40.523438 29.117188 L 31.089844 50.101562 L 40.523438 50.101562 Z M 97.882812 50.101562 L 107.273438 50.101562 L 107.273438 29.207031 Z M 109.929688 50.101562 L 119.367188 50.101562 L 109.929688 29.117188 Z M 142.226562 130.421875 L 142.226562 137.085938 C 142.226562 144.203125 136.433594 149.996094 129.3125 149.996094 L 7.773438 149.996094 L 7.773438 140.527344 L 12.457031 140.527344 C 14.972656 133.871094 13.296875 128.757812 12.523438 126.980469 L 7.773438 126.980469 L 7.773438 117.511719 L 17.363281 117.511719 C 14.28125 115.152344 12.285156 111.433594 12.285156 107.257812 L 12.285156 99.566406 C 12.285156 92.445312 18.078125 86.65625 25.195312 86.65625 L 53.574219 86.65625 L 53.574219 81.398438 L 61.710938 81.398438 L 61.710938 78.824219 C 61.710938 75.785156 64.183594 73.3125 67.226562 73.3125 L 67.296875 73.3125 L 67.296875 62.652344 C 67.296875 59.878906 69.355469 57.578125 72.023438 57.199219 L 72.023438 28.90625 L 71.9375 28.722656 C 70.0625 24.625 66.605469 21.605469 62.691406 20.65625 C 60.355469 20.089844 58.21875 20.390625 56.828125 21.484375 C 55.027344 22.898438 51.492188 25.4375 48.058594 26.5625 L 47.972656 26.589844 C 47.667969 26.664062 46.335938 26.996094 45.148438 27.101562 L 55.371094 49.84375 L 55.371094 51.625 C 55.371094 57.675781 49.289062 62.601562 41.8125 62.601562 C 34.335938 62.601562 28.253906 57.675781 28.253906 51.625 L 28.253906 50.101562 L 28.292969 50.101562 L 28.292969 49.84375 L 39.738281 24.394531 C 38.796875 22.8125 38.621094 20.78125 39.226562 18.480469 C 38.714844 17.882812 38.402344 17.109375 38.402344 16.261719 C 38.402344 14.382812 39.933594 12.851562 41.8125 12.851562 C 43.695312 12.851562 45.226562 14.382812 45.226562 16.261719 C 45.226562 17.84375 44.140625 19.175781 42.675781 19.558594 C 42.679688 20.433594 42.917969 21.203125 43.695312 21.441406 C 45.824219 22.097656 47.296875 20.726562 49.726562 18.25 C 51.839844 16.097656 54.464844 13.421875 58.414062 12.460938 C 64.417969 11 69.121094 12.972656 72.023438 15.261719 L 72.023438 12.753906 C 69.933594 11.59375 68.519531 9.367188 68.519531 6.8125 C 68.519531 3.066406 71.566406 0.0195312 75.3125 0.0195312 C 79.0625 0.0195312 82.109375 3.066406 82.109375 6.8125 C 82.109375 9.4375 80.613281 11.710938 78.4375 12.84375 L 78.4375 15.261719 C 81.335938 12.972656 86.035156 11.003906 92.042969 12.460938 C 95.992188 13.421875 98.617188 16.097656 100.726562 18.25 C 103.15625 20.730469 104.636719 22.097656 106.765625 21.441406 C 107.539062 21.203125 107.777344 20.433594 107.777344 19.558594 C 106.316406 19.175781 105.230469 17.84375 105.230469 16.261719 C 105.230469 14.382812 106.761719 12.851562 108.644531 12.851562 C 110.523438 12.851562 112.054688 14.382812 112.054688 16.261719 C 112.054688 17.109375 111.742188 17.882812 111.230469 18.480469 C 111.832031 20.78125 111.65625 22.8125 110.71875 24.394531 L 122.160156 49.84375 L 122.160156 50.101562 L 122.199219 50.101562 L 122.199219 51.625 C 122.199219 57.675781 116.117188 62.601562 108.644531 62.601562 C 101.167969 62.601562 95.085938 57.675781 95.085938 51.625 L 95.085938 49.84375 L 105.308594 27.105469 C 104.117188 27 102.785156 26.664062 102.480469 26.589844 L 102.398438 26.5625 C 98.960938 25.4375 95.429688 22.898438 93.628906 21.484375 C 92.238281 20.390625 90.101562 20.089844 87.761719 20.65625 C 83.851562 21.605469 80.394531 24.625 78.519531 28.722656 L 78.4375 28.90625 L 78.4375 57.199219 C 81.105469 57.578125 83.160156 59.878906 83.160156 62.652344 L 83.160156 73.3125 L 83.234375 73.3125 C 86.269531 73.3125 88.746094 75.785156 88.746094 78.824219 L 88.746094 81.398438 L 96.882812 81.398438 L 96.882812 86.65625 L 137.710938 86.65625 L 137.710938 96.125 L 133.011719 96.125 C 132.253906 98.128906 130.515625 103.988281 133.03125 110.699219 L 137.710938 110.699219 L 137.710938 120.167969 L 137.144531 120.167969 C 140.230469 122.53125 142.226562 126.246094 142.226562 130.421875 Z M 18.949219 138.6875 C 30.25 138.6875 41.554688 138.6875 52.855469 138.6875 C 54.566406 138.6875 54.570312 136.03125 52.855469 136.03125 C 41.554688 136.03125 30.25 136.03125 18.949219 136.03125 C 17.238281 136.03125 17.238281 138.6875 18.949219 138.6875 Z M 56.964844 138.6875 C 58.269531 138.6875 59.574219 138.6875 60.878906 138.6875 C 62.585938 138.6875 62.589844 136.03125 60.878906 136.03125 C 59.574219 136.03125 58.269531 136.03125 56.964844 136.03125 C 55.253906 136.03125 55.253906 138.6875 56.964844 138.6875 Z M 65.46875 138.6875 C 63.753906 138.6875 63.757812 136.03125 65.46875 136.03125 C 66.742188 136.03125 68.019531 136.03125 69.296875 136.03125 C 71.007812 136.03125 71.007812 138.6875 69.296875 138.6875 C 68.019531 138.6875 66.742188 138.6875 65.46875 138.6875 " fill-opacity="1" fill-rule="nonzero"/></g></svg>